<svg id="visual" viewBox="0 0 960 540" width="960" height="540" xmlns="http://www.w3.org/2000/svg" xmlns:xlink="http://www.w3.org/1999/xlink" version="1.1"><rect x="0" y="0" width="960" height="540" fill="#CCCCCC"></rect><defs><linearGradient id="grad1_0" x1="43.8%" y1="0%" x2="100%" y2="100%"><stop offset="14.444444444444446%" stop-color="#cccccc" stop-opacity="1"></stop><stop offset="85.55555555555554%" stop-color="#cccccc" stop-opacity="1"></stop></linearGradient></defs><defs><linearGradient id="grad2_0" x1="0%" y1="0%" x2="56.3%" y2="100%"><stop offset="14.444444444444446%" stop-color="#cccccc" stop-opacity="1"></stop><stop offset="85.55555555555554%" stop-color="#cccccc" stop-opacity="1"></stop></linearGradient></defs><g transform="translate(960, 0)"><path d="M0 216C-33.3 217.4 -66.5 218.8 -82.3 198.6C-98.1 178.4 -96.4 136.7 -116.7 116.7C-137 96.7 -179.3 98.5 -199.6 82.7C-219.8 66.8 -217.9 33.4 -216 0L0 0Z" fill="#934ACC"></path></g><g transform="translate(0, 540)"><path d="M0 -216C21.3 -199.2 42.6 -182.4 72.7 -175.5C102.8 -168.7 141.8 -171.8 152.7 -152.7C163.7 -133.6 146.6 -92.3 152.4 -63.1C158.3 -34 187.2 -17 216 0L0 0Z" fill="#934ACC"></path></g></svg>